<svg xmlns="http://www.w3.org/2000/svg" xmlns:xlink="http://www.w3.org/1999/xlink" width="2197px" height="2219px" style="shape-rendering:geometricPrecision; text-rendering:geometricPrecision; image-rendering:optimizeQuality; fill-rule:evenodd; clip-rule:evenodd"><g><path style="opacity:0.995" fill="#d9bc75" d="M 1090.5,119.5 C 1089.74,120.268 1088.74,120.768 1087.5,121C 1087.5,123.667 1087.5,126.333 1087.5,129C 1088,129.5 1088.5,130 1089,130.5C 1090,130.167 1091,129.833 1092,129.5C 1092.67,130.5 1092.67,131.5 1092,132.5C 1091,132.167 1090,131.833 1089,131.5C 1088.5,132 1088,132.5 1087.5,133C 1087.5,146.333 1087.5,159.667 1087.5,173C 1088.42,173.278 1089.08,173.778 1089.5,174.5C 1069.86,173.412 1050.19,172.745 1030.5,172.5C 1030.17,155.167 1029.83,137.833 1029.5,120.5C 1049.76,119.512 1070.09,119.179 1090.5,119.5 Z"></path></g><g><path style="opacity:0.986" fill="#dbc077" d="M 1090.5,119.5 C 1107.86,119.452 1125.2,120.118 1142.5,121.5C 1141.74,122.268 1140.74,122.768 1139.5,123C 1139.5,125.667 1139.5,128.333 1139.5,131C 1140,131.5 1140.5,132 1141,132.5C 1142,132.167 1143,131.833 1144,131.5C 1144.67,132.5 1144.67,133.5 1144,134.5C 1143,134.167 1142,133.833 1141,133.5C 1140.5,134 1140,134.5 1139.5,135C 1139.83,148 1140.17,161 1140.5,174C 1138.85,175.755 1137.19,176.922 1135.5,177.5C 1120.2,176.147 1104.87,175.147 1089.5,174.5C 1089.08,173.778 1088.42,173.278 1087.5,173C 1087.5,159.667 1087.5,146.333 1087.5,133C 1088,132.5 1088.5,132 1089,131.5C 1090,131.833 1091,132.167 1092,132.5C 1092.67,131.5 1092.67,130.5 1092,129.5C 1091,129.833 1090,130.167 1089,130.5C 1088.5,130 1088,129.5 1087.5,129C 1087.5,126.333 1087.5,123.667 1087.5,121C 1088.74,120.768 1089.74,120.268 1090.5,119.5 Z"></path></g><g><path style="opacity:0.99" fill="#d7b972" d="M 1029.5,120.5 C 1029.83,137.833 1030.17,155.167 1030.5,172.5C 1014.17,173.214 997.835,174.048 981.5,175C 976.387,175.855 971.387,177.021 966.5,178.5C 966.503,160.663 966.17,142.997 965.5,125.5C 986.585,122.521 1007.92,120.855 1029.5,120.5 Z"></path></g><g><path style="opacity:0.982" fill="#dec47b" d="M 1142.5,121.5 C 1178.31,124.092 1213.64,129.092 1248.5,136.5C 1248.06,139.208 1247.72,142.041 1247.5,145C 1248.25,146.487 1249.09,146.654 1250,145.5C 1250.46,146.094 1250.63,146.761 1250.5,147.5C 1238.43,145.786 1226.43,143.619 1214.5,141C 1207.18,140.001 1199.85,139.667 1192.5,140C 1209.28,142.296 1225.95,145.13 1242.5,148.5C 1242.39,150.379 1242.89,150.712 1244,149.5C 1245.61,150.147 1247.11,150.98 1248.5,152C 1247.93,165.782 1247.6,179.615 1247.5,193.5C 1221.1,189.099 1194.76,184.266 1168.5,179C 1157.52,178.057 1146.52,177.557 1135.5,177.5C 1137.19,176.922 1138.85,175.755 1140.5,174C 1140.17,161 1139.83,148 1139.5,135C 1140,134.5 1140.5,134 1141,133.5C 1142,133.833 1143,134.167 1144,134.5C 1144.67,133.5 1144.67,132.5 1144,131.5C 1143,131.833 1142,132.167 1141,132.5C 1140.5,132 1140,131.5 1139.5,131C 1139.5,128.333 1139.5,125.667 1139.5,123C 1140.74,122.768 1141.74,122.268 1142.5,121.5 Z"></path></g><g><path style="opacity:0.989" fill="#d5b66f" d="M 965.5,125.5 C 966.17,142.997 966.503,160.663 966.5,178.5C 945.44,181.461 924.44,184.794 903.5,188.5C 903.489,186.983 902.823,185.816 901.5,185C 902.598,168.216 902.598,151.382 901.5,134.5C 922.667,130.381 944,127.381 965.5,125.5 Z"></path></g><g><path style="opacity:0.992" fill="#d3b26b" d="M 901.5,134.5 C 902.598,151.382 902.598,168.216 901.5,185C 902.823,185.816 903.489,186.983 903.5,188.5C 885.804,192.007 868.138,195.674 850.5,199.5C 848.533,199.261 846.699,199.594 845,200.5C 844.5,200 844,199.5 843.5,199C 843.833,182.667 844.167,166.333 844.5,150C 843.922,148.583 842.922,147.75 841.5,147.5C 861.114,141.934 881.114,137.6 901.5,134.5 Z"></path></g><g><path style="opacity:0.94" fill="#e2ca80" d="M 1248.5,136.5 C 1283.53,142.434 1317.86,150.767 1351.5,161.5C 1350.04,161.579 1348.71,162.079 1347.5,163C 1347.83,165.333 1348.17,167.667 1348.5,170C 1347.96,170.717 1347.29,171.217 1346.5,171.5C 1314.71,162.219 1282.71,154.219 1250.5,147.5C 1250.63,146.761 1250.46,146.094 1250,145.5C 1249.09,146.654 1248.25,146.487 1247.5,145C 1247.72,142.041 1248.06,139.208 1248.5,136.5 Z"></path></g><g><path style="opacity:0.988" fill="#d1af69" d="M 841.5,147.5 C 842.922,147.75 843.922,148.583 844.5,150C 844.167,166.333 843.833,182.667 843.5,199C 844,199.5 844.5,200 845,200.5C 846.699,199.594 848.533,199.261 850.5,199.5C 834.294,204.304 817.961,208.971 801.5,213.5C 801.047,212.542 800.381,211.708 799.5,211C 799.736,193.549 799.736,176.049 799.5,158.5C 813.318,154.212 827.318,150.545 841.5,147.5 Z"></path></g><g><path style="opacity:0.985" fill="#e2ca80" d="M 1242.5,148.5 C 1277.98,155.661 1312.98,164.661 1347.5,175.5C 1347.83,190.833 1348.17,206.167 1348.5,221.5C 1315.18,210.499 1281.52,201.166 1247.5,193.5C 1247.6,179.615 1247.93,165.782 1248.5,152C 1247.11,150.98 1245.61,150.147 1244,149.5C 1242.89,150.712 1242.39,150.379 1242.5,148.5 Z"></path></g><g><path style="opacity:0.99" fill="#cfac66" d="M 799.5,158.5 C 799.736,176.049 799.736,193.549 799.5,211C 800.381,211.708 801.047,212.542 801.5,213.5C 780.937,219.909 760.604,226.909 740.5,234.5C 739.402,216.284 739.402,198.118 740.5,180C 739.906,179.536 739.239,179.369 738.5,179.5C 758.557,171.925 778.89,164.925 799.5,158.5 Z"></path></g><g><path style="opacity:0.963" fill="#e6d186" d="M 1351.5,161.5 C 1394.88,174.177 1436.88,190.177 1477.5,209.5C 1476.71,209.783 1476.04,210.283 1475.5,211C 1476.6,215.784 1476.6,220.617 1475.5,225.5C 1433.4,205.139 1390.4,187.139 1346.5,171.5C 1347.29,171.217 1347.96,170.717 1348.5,170C 1348.17,167.667 1347.83,165.333 1347.5,163C 1348.71,162.079 1350.04,161.579 1351.5,161.5 Z"></path></g><g><path style="opacity:0.994" fill="#cda964" d="M 738.5,179.5 C 739.239,179.369 739.906,179.536 740.5,180C 739.402,198.118 739.402,216.284 740.5,234.5C 725.493,240.502 710.493,246.502 695.5,252.5C 694.042,252.421 692.708,251.921 691.5,251C 692.833,234.333 692.833,217.667 691.5,201C 692.71,199.961 693.71,198.794 694.5,197.5C 708.849,190.934 723.516,184.934 738.5,179.5 Z"></path></g><g><path style="opacity:0.989" fill="#e6d086" d="M 1347.5,175.5 C 1391.94,189.864 1434.94,207.53 1476.5,228.5C 1476.6,244.29 1476.27,259.957 1475.5,275.5C 1434.43,254.371 1392.1,236.371 1348.5,221.5C 1348.17,206.167 1347.83,190.833 1347.5,175.5 Z"></path></g><g><path style="opacity:0.988" fill="#cba560" d="M 694.5,197.5 C 693.71,198.794 692.71,199.961 691.5,201C 692.833,217.667 692.833,234.333 691.5,251C 692.708,251.921 694.042,252.421 695.5,252.5C 660.997,268.083 627.664,285.75 595.5,305.5C 595.217,304.711 594.717,304.044 594,303.5C 592.829,306.038 591.329,306.538 589.5,305C 589.5,287.667 589.5,270.333 589.5,253C 590.716,251.26 592.382,250.26 594.5,250C 593.944,249.617 593.611,249.117 593.5,248.5C 625.929,229.119 659.596,212.119 694.5,197.5 Z"></path></g><g><path style="opacity:0.972" fill="#ead78c" d="M 1477.5,209.5 C 1512.57,225.198 1546.24,243.198 1578.5,263.5C 1578.5,270.5 1578.5,277.5 1578.5,284.5C 1545.27,263.048 1510.94,243.382 1475.5,225.5C 1476.6,220.617 1476.6,215.784 1475.5,211C 1476.04,210.283 1476.71,209.783 1477.5,209.5 Z"></path></g><g><path style="opacity:0.988" fill="#ead78c" d="M 1476.5,228.5 C 1512.11,245.631 1546.11,265.297 1578.5,287.5C 1578.17,304.167 1577.83,320.833 1577.5,337.5C 1561,326.522 1544.34,315.689 1527.5,305C 1510.27,294.886 1492.93,285.053 1475.5,275.5C 1476.27,259.957 1476.6,244.29 1476.5,228.5 Z"></path></g><g><path style="opacity:0.991" fill="#c8a05c" d="M 593.5,248.5 C 593.611,249.117 593.944,249.617 594.5,250C 592.382,250.26 590.716,251.26 589.5,253C 589.5,270.333 589.5,287.667 589.5,305C 591.329,306.538 592.829,306.038 594,303.5C 594.717,304.044 595.217,304.711 595.5,305.5C 577.131,316.679 559.131,328.346 541.5,340.5C 541.44,339.957 541.107,339.624 540.5,339.5C 539.186,340.313 538.019,341.313 537,342.5C 536.5,342 536,341.5 535.5,341C 536.833,323 536.833,305 535.5,287C 536.999,286.162 537.332,285.329 536.5,284.5C 554.944,271.744 573.944,259.744 593.5,248.5 Z"></path></g><g><path style="opacity:0.992" fill="#c69d59" d="M 536.5,284.5 C 537.332,285.329 536.999,286.162 535.5,287C 536.833,305 536.833,323 535.5,341C 536,341.5 536.5,342 537,342.5C 538.019,341.313 539.186,340.313 540.5,339.5C 541.107,339.624 541.44,339.957 541.5,340.5C 513.324,361.331 485.99,383.331 459.5,406.5C 457.692,405.683 456.192,406.35 455,408.5C 454.5,408 454,407.5 453.5,407C 453.5,388.333 453.5,369.667 453.5,351C 457.439,347.571 460.772,343.737 463.5,339.5C 486.938,319.951 511.271,301.618 536.5,284.5 Z"></path></g><g><path style="opacity:0.976" fill="#eede91" d="M 1578.5,263.5 C 1616.61,285.884 1652.61,311.217 1686.5,339.5C 1685.5,339.344 1684.5,339.844 1683.5,341C 1683.5,347.667 1683.5,354.333 1683.5,361C 1684.83,362.333 1686.17,363.667 1687.5,365C 1686.91,365.464 1686.24,365.631 1685.5,365.5C 1651.82,335.812 1616.15,308.812 1578.5,284.5C 1578.5,277.5 1578.5,270.5 1578.5,263.5 Z"></path></g><g><path style="opacity:0.995" fill="#eddb8f" d="M 1578.5,287.5 C 1592.33,295.337 1605.33,304.337 1617.5,314.5C 1616.76,314.369 1616.09,314.536 1615.5,315C 1615.83,331.333 1616.17,347.667 1616.5,364C 1615.96,364.717 1615.29,365.217 1614.5,365.5C 1602.14,356.135 1589.81,346.802 1577.5,337.5C 1577.83,320.833 1578.17,304.167 1578.5,287.5 Z"></path></g><g><path style="opacity:0.987" fill="#eede92" d="M 1617.5,314.5 C 1626.55,320.034 1635.21,326.201 1643.5,333C 1657.98,344.322 1671.98,356.156 1685.5,368.5C 1685.05,369.458 1684.38,370.292 1683.5,371C 1684.74,388.951 1684.74,406.785 1683.5,424.5C 1661.36,403.68 1638.36,384.014 1614.5,365.5C 1615.29,365.217 1615.96,364.717 1616.5,364C 1616.17,347.667 1615.83,331.333 1615.5,315C 1616.09,314.536 1616.76,314.369 1617.5,314.5 Z"></path></g><g><path style="opacity:0.987" fill="#c39855" d="M 463.5,339.5 C 460.772,343.737 457.439,347.571 453.5,351C 453.5,369.667 453.5,388.333 453.5,407C 454,407.5 454.5,408 455,408.5C 456.192,406.35 457.692,405.683 459.5,406.5C 439.344,425.156 419.677,444.323 400.5,464C 398.608,464.973 396.608,465.64 394.5,466C 388.612,473.622 382.612,481.122 376.5,488.5C 375.244,488.539 374.244,488.039 373.5,487C 374.501,466.34 374.834,445.506 374.5,424.5C 402.316,394.117 431.983,365.784 463.5,339.5 Z"></path></g><g><path style="opacity:0.985" fill="#f1e396" d="M 1686.5,339.5 C 1719.29,364.946 1749.96,392.946 1778.5,423.5C 1778.39,435.61 1778.06,447.444 1777.5,459C 1779.92,460.888 1779.92,462.888 1777.5,465C 1777.74,486.451 1777.74,507.951 1777.5,529.5C 1760.35,507.235 1743.19,484.902 1726,462.5C 1722.37,459.87 1719.03,456.87 1716,453.5C 1715.8,455.207 1715.8,456.874 1716,458.5C 1705.33,446.995 1694.49,435.661 1683.5,424.5C 1684.74,406.785 1684.74,388.951 1683.5,371C 1684.38,370.292 1685.05,369.458 1685.5,368.5C 1705.1,385.594 1723.93,403.594 1742,422.5C 1742.17,422.167 1742.33,421.833 1742.5,421.5C 1724.52,401.699 1705.52,383.032 1685.5,365.5C 1686.24,365.631 1686.91,365.464 1687.5,365C 1686.17,363.667 1684.83,362.333 1683.5,361C 1683.5,354.333 1683.5,347.667 1683.5,341C 1684.5,339.844 1685.5,339.344 1686.5,339.5 Z"></path></g><g><path style="opacity:0.989" fill="#f4e79a" d="M 1778.5,423.5 C 1808.72,454.713 1836.72,487.713 1862.5,522.5C 1862.63,523.239 1862.46,523.906 1862,524.5C 1861.58,523.044 1860.74,522.544 1859.5,523C 1859.83,535.333 1860.17,547.667 1860.5,560C 1859.13,561.262 1857.79,561.762 1856.5,561.5C 1855.83,561.167 1855.17,560.833 1854.5,560.5C 1854.43,562.027 1855.09,563.027 1856.5,563.5C 1856.33,564.492 1856.66,565.158 1857.5,565.5C 1857.43,567.027 1858.09,568.027 1859.5,568.5C 1859.43,570.027 1860.09,571.027 1861.5,571.5C 1861.5,571.833 1861.5,572.167 1861.5,572.5C 1860.73,573.172 1860.07,574.005 1859.5,575C 1860.54,602.478 1860.54,629.978 1859.5,657.5C 1835.15,612.769 1807.82,570.103 1777.5,529.5C 1777.74,507.951 1777.74,486.451 1777.5,465C 1779.92,462.888 1779.92,460.888 1777.5,459C 1778.06,447.444 1778.39,435.61 1778.5,423.5 Z M 1830.5,526.5 C 1831.91,526.973 1832.57,527.973 1832.5,529.5C 1831.09,529.027 1830.43,528.027 1830.5,526.5 Z M 1832.5,529.5 C 1834.26,530.262 1835.26,531.596 1835.5,533.5C 1833.74,532.738 1832.74,531.404 1832.5,529.5 Z M 1835.5,533.5 C 1837.26,534.262 1838.26,535.596 1838.5,537.5C 1836.74,536.738 1835.74,535.404 1835.5,533.5 Z M 1838.5,537.5 C 1839.91,537.973 1840.57,538.973 1840.5,540.5C 1839.09,540.027 1838.43,539.027 1838.5,537.5 Z M 1840.5,540.5 C 1842.26,541.262 1843.26,542.596 1843.5,544.5C 1841.74,543.738 1840.74,542.404 1840.5,540.5 Z M 1843.5,544.5 C 1844.91,544.973 1845.57,545.973 1845.5,547.5C 1844.09,547.027 1843.43,546.027 1843.5,544.5 Z M 1845.5,547.5 C 1848.6,550.275 1850.94,553.608 1852.5,557.5C 1849.4,554.725 1847.06,551.392 1845.5,547.5 Z M 1852.5,557.5 C 1853.91,557.973 1854.57,558.973 1854.5,560.5C 1853.09,560.027 1852.43,559.027 1852.5,557.5 Z"></path></g><g><path style="opacity:0.992" fill="#c09552" d="M 374.5,424.5 C 374.834,445.506 374.501,466.34 373.5,487C 374.244,488.039 375.244,488.539 376.5,488.5C 362.03,505.617 348.03,522.951 334.5,540.5C 333.502,540.656 332.502,540.156 331.5,539C 332.165,517.334 332.165,495.501 331.5,473.5C 344.745,456.252 359.078,439.919 374.5,424.5 Z"></path></g><g><path style="opacity:0.986" fill="#be914f" d="M 331.5,473.5 C 332.165,495.501 332.165,517.334 331.5,539C 332.502,540.156 333.502,540.656 334.5,540.5C 317.132,564.384 300.299,588.718 284,613.5C 274.487,631.86 264.987,650.193 255.5,668.5C 254.711,668.217 254.044,667.717 253.5,667C 253.833,640 254.167,613 254.5,586C 253.956,585.283 253.289,584.783 252.5,584.5C 276.148,545.53 302.481,508.53 331.5,473.5 Z"></path></g><g><path style="opacity:0.994" fill="#d5b56e" d="M 997.5,628.5 C 998.598,638.716 998.598,648.882 997.5,659C 998.416,659.278 999.082,659.778 999.5,660.5C 987.798,660.825 976.132,661.658 964.5,663C 961.42,676.245 958.42,689.411 955.5,702.5C 955.082,701.778 954.416,701.278 953.5,701C 953.5,665 953.5,629 953.5,593C 955.402,591.606 955.735,589.773 954.5,587.5C 960.249,563.412 969.416,540.745 982,519.5C 986.654,512.511 992.821,507.344 1000.5,504C 1010.7,501.26 1017.03,504.927 1019.5,515C 1019,516.5 1018.5,518 1018,519.5C 1010.85,524.778 1004.18,530.778 998,537.5C 992.939,545.626 988.939,554.293 986,563.5C 979.935,585.496 974.769,607.663 970.5,630C 979.525,630.04 988.525,629.54 997.5,628.5 Z"></path></g><g><path style="opacity:0.987" fill="#f7eb9e" d="M 1862.5,522.5 C 1882.39,548.738 1900.73,576.071 1917.5,604.5C 1917.05,605.458 1916.38,606.292 1915.5,607C 1915.83,626 1916.17,645 1916.5,664C 1915.91,664.464 1915.24,664.631 1914.5,664.5C 1905.95,647.736 1897.12,631.07 1888,614.5C 1882.62,608.433 1877.95,601.766 1874,594.5C 1873.35,593.304 1872.85,593.304 1872.5,594.5C 1890.08,623.669 1906.08,653.669 1920.5,684.5C 1918.8,684.34 1917.13,684.506 1915.5,685C 1915.83,716.667 1916.17,748.333 1916.5,780C 1915.96,780.717 1915.29,781.217 1914.5,781.5C 1909.37,764.605 1903.53,747.938 1897,731.5C 1896.33,729.5 1895,728.167 1893,727.5C 1882.64,703.775 1871.47,680.442 1859.5,657.5C 1860.54,629.978 1860.54,602.478 1859.5,575C 1860.07,574.005 1860.73,573.172 1861.5,572.5C 1861.98,574.066 1862.64,574.4 1863.5,573.5C 1863.14,572.478 1862.48,571.811 1861.5,571.5C 1861.57,569.973 1860.91,568.973 1859.5,568.5C 1859.57,566.973 1858.91,565.973 1857.5,565.5C 1857.67,564.508 1857.34,563.842 1856.5,563.5C 1856.5,562.833 1856.5,562.167 1856.5,561.5C 1857.79,561.762 1859.13,561.262 1860.5,560C 1860.17,547.667 1859.83,535.333 1859.5,523C 1860.74,522.544 1861.58,523.044 1862,524.5C 1862.46,523.906 1862.63,523.239 1862.5,522.5 Z M 1864.5,576.5 C 1865.91,576.973 1866.57,577.973 1866.5,579.5C 1865.09,579.027 1864.43,578.027 1864.5,576.5 Z"></path></g><g><path style="opacity:0.985" fill="#d3b26b" d="M 954.5,587.5 C 955.735,589.773 955.402,591.606 953.5,593C 953.5,629 953.5,665 953.5,701C 954.416,701.278 955.082,701.778 955.5,702.5C 940.653,781.585 927.319,860.918 915.5,940.5C 914.711,940.217 914.044,939.717 913.5,939C 913.833,887.333 914.167,835.667 914.5,784C 913.833,783.333 913.167,782.667 912.5,782C 913.774,781.023 913.774,780.189 912.5,779.5C 918.897,741.244 926.564,703.244 935.5,665.5C 928.55,665.082 921.55,665.082 914.5,665.5C 913.883,665.389 913.383,665.056 913,664.5C 912.194,654.756 912.361,645.089 913.5,635.5C 923.1,634.223 932.767,633.557 942.5,633.5C 945.585,617.822 949.585,602.489 954.5,587.5 Z"></path></g><g><path style="opacity:0.982" fill="#bc8d4b" d="M 252.5,584.5 C 253.289,584.783 253.956,585.283 254.5,586C 254.167,613 253.833,640 253.5,667C 254.044,667.717 254.711,668.217 255.5,668.5C 242.705,690.423 231.205,713.09 221,736.5C 210.267,763.608 200.434,790.941 191.5,818.5C 190.711,818.217 190.044,817.717 189.5,817C 190.736,809.715 190.736,802.548 189.5,795.5C 197.871,767.887 207.538,740.72 218.5,714C 218.333,713.5 218.167,713 218,712.5C 208.658,732.846 200.158,753.513 192.5,774.5C 191.171,769.376 190.505,763.876 190.5,758C 190.96,750.41 190.96,743.243 190.5,736.5C 190.5,736.167 190.5,735.833 190.5,735.5C 190.5,735.167 190.5,734.833 190.5,734.5C 191.167,734.5 191.5,734.167 191.5,733.5C 192.506,733.062 192.506,732.396 191.5,731.5C 191.154,723.281 190.154,715.281 188.5,707.5C 206.982,664.864 228.316,623.864 252.5,584.5 Z"></path></g><g><path style="opacity:0.99" fill="#f9f0a1" d="M 1661.5,637.5 C 1660.47,636.751 1659.3,636.085 1658,635.5C 1656.33,635.833 1654.67,636.167 1653,636.5C 1652.5,636 1652,635.5 1651.5,635C 1652.83,626.333 1652.83,617.667 1651.5,609C 1652,608.5 1652.5,608 1653,607.5C 1654,607.833 1655,608.167 1656,608.5C 1656.46,607.906 1656.63,607.239 1656.5,606.5C 1672.16,605.75 1687.83,604.917 1703.5,604C 1715.35,602.773 1727.01,600.606 1738.5,597.5C 1742.57,597.016 1744.91,598.682 1745.5,602.5C 1745.24,605.028 1744.4,607.361 1743,609.5C 1721.02,632.996 1693.86,642.329 1661.5,637.5 Z"></path></g><g><path style="opacity:0.976" fill="#f5e99b" d="M 1656.5,606.5 C 1656.63,607.239 1656.46,607.906 1656,608.5C 1655,608.167 1654,607.833 1653,607.5C 1652.5,608 1652,608.5 1651.5,609C 1652.83,617.667 1652.83,626.333 1651.5,635C 1652,635.5 1652.5,636 1653,636.5C 1654.67,636.167 1656.33,635.833 1658,635.5C 1659.3,636.085 1660.47,636.751 1661.5,637.5C 1627.17,637.749 1592.83,638.082 1558.5,638.5C 1558.17,628.5 1557.83,618.5 1557.5,608.5C 1590.49,607.529 1623.49,606.862 1656.5,606.5 Z"></path></g><g><path style="opacity:0.983" fill="#f1e396" d="M 1557.5,608.5 C 1557.83,618.5 1558.17,628.5 1558.5,638.5C 1537.84,639.107 1517.17,639.44 1496.5,639.5C 1496.61,637.621 1496.11,637.288 1495,638.5C 1494.5,638 1494,637.5 1493.5,637C 1493.83,628.667 1494.17,620.333 1494.5,612C 1493.62,611.292 1492.95,610.458 1492.5,609.5C 1514.16,608.945 1535.83,608.611 1557.5,608.5 Z"></path></g><g><path style="opacity:0.975" fill="#eedd91" d="M 1492.5,609.5 C 1492.95,610.458 1493.62,611.292 1494.5,612C 1494.17,620.333 1493.83,628.667 1493.5,637C 1494,637.5 1494.5,638 1495,638.5C 1496.11,637.288 1496.61,637.621 1496.5,639.5C 1470.82,639.95 1445.16,640.616 1419.5,641.5C 1420.6,632.618 1420.6,623.784 1419.5,615C 1421.15,613.245 1422.81,612.078 1424.5,611.5C 1447.17,610.89 1469.84,610.224 1492.5,609.5 Z"></path></g><g><path style="opacity:0.979" fill="#ead78c" d="M 1424.5,611.5 C 1422.81,612.078 1421.15,613.245 1419.5,615C 1420.6,623.784 1420.6,632.618 1419.5,641.5C 1397.82,641.813 1376.15,642.48 1354.5,643.5C 1352.99,641.807 1351.32,640.973 1349.5,641C 1350.17,632.001 1350.17,622.834 1349.5,613.5C 1374.5,612.97 1399.5,612.304 1424.5,611.5 Z"></path></g><g><path style="opacity:0.984" fill="#e6d086" d="M 1349.5,613.5 C 1350.17,622.834 1350.17,632.001 1349.5,641C 1351.32,640.973 1352.99,641.807 1354.5,643.5C 1323.17,644.602 1291.84,645.602 1260.5,646.5C 1259.93,637.289 1259.6,628.122 1259.5,619C 1260.42,618.722 1261.08,618.222 1261.5,617.5C 1290.89,616.308 1320.22,614.975 1349.5,613.5 Z"></path></g><g><path style="opacity:0.976" fill="#e2ca80" d="M 1261.5,617.5 C 1261.08,618.222 1260.42,618.722 1259.5,619C 1259.6,628.122 1259.93,637.289 1260.5,646.5C 1238.53,647.847 1216.53,648.847 1194.5,649.5C 1194.61,647.621 1194.11,647.288 1193,648.5C 1192.5,648 1192,647.5 1191.5,647C 1192.83,638.333 1192.83,629.667 1191.5,621C 1194.04,620.814 1196.37,620.314 1198.5,619.5C 1219.49,618.512 1240.49,617.845 1261.5,617.5 Z"></path></g><g><path style="opacity:0.981" fill="#dec47b" d="M 1198.5,619.5 C 1196.37,620.314 1194.04,620.814 1191.5,621C 1192.83,629.667 1192.83,638.333 1191.5,647C 1192,647.5 1192.5,648 1193,648.5C 1194.11,647.288 1194.61,647.621 1194.5,649.5C 1169.16,650.773 1143.83,652.106 1118.5,653.5C 1118.5,643.167 1118.5,632.833 1118.5,622.5C 1145.16,621.389 1171.83,620.389 1198.5,619.5 Z"></path></g><g><path style="opacity:0.986" fill="#dabe76" d="M 1118.5,622.5 C 1118.5,632.833 1118.5,643.167 1118.5,653.5C 1093.48,654.501 1068.48,655.834 1043.5,657.5C 1043.05,656.542 1042.38,655.708 1041.5,655C 1042.83,646.333 1042.83,637.667 1041.5,629C 1042.38,628.292 1043.05,627.458 1043.5,626.5C 1068.49,625.016 1093.49,623.682 1118.5,622.5 Z"></path></g><g><path style="opacity:0.983" fill="#d7b972" d="M 1043.5,626.5 C 1043.05,627.458 1042.38,628.292 1041.5,629C 1042.83,637.667 1042.83,646.333 1041.5,655C 1042.38,655.708 1043.05,656.542 1043.5,657.5C 1028.79,658.11 1014.13,659.11 999.5,660.5C 999.082,659.778 998.416,659.278 997.5,659C 998.598,648.882 998.598,638.716 997.5,628.5C 1012.84,627.868 1028.17,627.202 1043.5,626.5 Z"></path></g><g><path style="opacity:0.98" fill="#cfac66" d="M 913.5,635.5 C 912.361,645.089 912.194,654.756 913,664.5C 913.383,665.056 913.883,665.389 914.5,665.5C 878.963,668.701 843.297,672.034 807.5,675.5C 808.263,674.732 809.263,674.232 810.5,674C 810.167,665.667 809.833,657.333 809.5,649C 811.041,647.629 812.375,646.129 813.5,644.5C 846.76,640.707 880.094,637.707 913.5,635.5 Z"></path></g><g><path style="opacity:0.976" fill="#cba560" d="M 813.5,644.5 C 812.375,646.129 811.041,647.629 809.5,649C 809.833,657.333 810.167,665.667 810.5,674C 809.263,674.232 808.263,674.732 807.5,675.5C 785.092,677.606 762.759,680.273 740.5,683.5C 739.167,673.833 739.167,664.167 740.5,654.5C 764.731,650.596 789.065,647.262 813.5,644.5 Z"></path></g><g><path style="opacity:0.992" fill="#c8a05c" d="M 740.5,654.5 C 739.167,664.167 739.167,673.833 740.5,683.5C 726.85,685.608 713.183,687.608 699.5,689.5C 700.598,680.618 700.598,671.784 699.5,663C 700.253,661.513 701.086,661.346 702,662.5C 703.039,661.756 703.539,660.756 703.5,659.5C 715.796,657.553 728.129,655.886 740.5,654.5 Z"></path></g><g><path style="opacity:0.982" fill="#c59c58" d="M 703.5,659.5 C 703.539,660.756 703.039,661.756 702,662.5C 701.086,661.346 700.253,661.513 699.5,663C 700.598,671.784 700.598,680.618 699.5,689.5C 681.92,692.819 664.253,695.819 646.5,698.5C 645.244,698.539 644.244,698.039 643.5,697C 644.071,688.554 644.404,680.054 644.5,671.5C 663.977,667.004 683.644,663.004 703.5,659.5 Z"></path></g><g><path style="opacity:0.975" fill="#c39855" d="M 644.5,671.5 C 644.404,680.054 644.071,688.554 643.5,697C 644.244,698.039 645.244,698.539 646.5,698.5C 626.948,702.478 607.281,706.478 587.5,710.5C 587.929,701.715 587.929,693.048 587.5,684.5C 606.297,679.385 625.297,675.051 644.5,671.5 Z"></path></g><g><path style="opacity:0.977" fill="#f9efa1" d="M 1917.5,604.5 C 1943.31,645.114 1964.64,688.114 1981.5,733.5C 1980.37,735.666 1980.71,737.833 1982.5,740C 1981.17,755.333 1981.17,770.667 1982.5,786C 1981.83,787 1981.17,788 1980.5,789C 1982.01,790.674 1982.68,792.34 1982.5,794C 1980.28,797.578 1980.28,800.911 1982.5,804C 1982.5,812 1982.5,820 1982.5,828C 1980.12,827.173 1977.79,826.006 1975.5,824.5C 1960.18,769.21 1939.85,715.876 1914.5,664.5C 1915.24,664.631 1915.91,664.464 1916.5,664C 1916.17,645 1915.83,626 1915.5,607C 1916.38,606.292 1917.05,605.458 1917.5,604.5 Z"></path></g><g><path style="opacity:0.991" fill="#f8eea0" d="M 1920.5,684.5 C 1931.27,707.382 1940.94,730.715 1949.5,754.5C 1949.33,755.822 1949.66,756.989 1950.5,758C 1946.5,758.667 1946.5,759.333 1950.5,760C 1946.5,760.667 1946.5,761.333 1950.5,762C 1947.46,762.359 1947.12,763.026 1949.5,764C 1946.83,764.667 1946.83,765.333 1949.5,766C 1946.83,766.667 1946.83,767.333 1949.5,768C 1946.83,768.667 1946.83,769.333 1949.5,770C 1946.83,770.667 1946.83,771.333 1949.5,772C 1946.83,772.667 1946.83,773.333 1949.5,774C 1946.83,774.667 1946.83,775.333 1949.5,776C 1946.83,776.667 1946.83,777.333 1949.5,778C 1946.83,778.667 1946.83,779.333 1949.5,780C 1946.83,780.667 1946.83,781.333 1949.5,782C 1946.83,782.667 1946.83,783.333 1949.5,784C 1946.83,784.667 1946.83,785.333 1949.5,786C 1946.83,786.667 1946.83,787.333 1949.5,788C 1946.83,788.667 1946.83,789.333 1949.5,790C 1946.83,790.667 1946.83,791.333 1949.5,792C 1946.83,792.667 1946.83,793.333 1949.5,794C 1946.83,794.667 1946.83,795.333 1949.5,796C 1946.83,796.667 1946.83,797.333 1949.5,798C 1946.83,798.667 1946.83,799.333 1949.5,800C 1946.83,800.667 1946.83,801.333 1949.5,802C 1946.83,802.667 1946.83,803.333 1949.5,804C 1946.83,804.667 1946.83,805.333 1949.5,806C 1946.83,806.667 1946.83,807.333 1949.5,808C 1946.83,808.667 1946.83,809.333 1949.5,810C 1946.83,810.667 1946.83,811.333 1949.5,812C 1946.83,812.667 1946.83,813.333 1949.5,814C 1946.83,814.667 1946.83,815.333 1949.5,816C 1946.83,816.667 1946.83,817.333 1949.5,818C 1946.83,818.667 1946.83,819.333 1949.5,820C 1946.83,820.667 1946.83,821.333 1949.5,822C 1946.83,822.667 1946.83,823.333 1949.5,824C 1946.83,824.667 1946.83,825.333 1949.5,826C 1946.83,826.667 1946.83,827.333 1949.5,828C 1946.83,828.667 1946.83,829.333 1949.5,830C 1946.83,830.667 1946.83,831.333 1949.5,832C 1946.83,832.667 1946.83,833.333 1949.5,834C 1946.83,834.667 1946.83,835.333 1949.5,836C 1946.83,836.667 1946.83,837.333 1949.5,838C 1946.83,838.667 1946.83,839.333 1949.5,840C 1946.83,840.667 1946.83,841.333 1949.5,842C 1946.83,842.667 1946.83,843.333 1949.5,844C 1946.83,844.667 1946.83,845.333 1949.5,846C 1946.83,846.667 1946.83,847.333 1949.5,848C 1946.83,848.667 1946.83,849.333 1949.5,850C 1946.83,850.667 1946.83,851.333 1949.5,852C 1946.83,852.667 1946.83,853.333 1949.5,854C 1946.83,854.667 1946.83,855.333 1949.5,856C 1946.83,856.667 1946.83,857.333 1949.5,858C 1946.83,858.667 1946.83,859.333 1949.5,860C 1946.83,860.667 1946.83,861.333 1949.5,862C 1946.83,862.667 1946.83,863.333 1949.5,864C 1946.83,864.667 1946.83,865.333 1949.5,866C 1946.83,866.667 1946.83,867.333 1949.5,868C 1946.83,868.667 1946.83,869.333 1949.5,870C 1946.83,870.667 1946.83,871.333 1949.5,872C 1946.83,872.667 1946.83,873.333 1949.5,874C 1946.83,874.667 1946.83,875.333 1949.5,876C 1946.83,876.667 1946.83,877.333 1949.5,878C 1946.83,878.667 1946.83,879.333 1949.5,880C 1946.83,880.667 1946.83,881.333 1949.5,882C 1946.83,882.667 1946.83,883.333 1949.5,884C 1946.83,884.667 1946.83,885.333 1949.5,886C 1946.83,886.667 1946.83,887.333 1949.5,888C 1946.83,888.667 1946.83,889.333 1949.5,890C 1946.83,890.667 1946.83,891.333 1949.5,892C 1946.83,892.667 1946.83,893.333 1949.5,894C 1948.83,894.333 1948.17,894.667 1947.5,895C 1949.36,896.418 1949.86,898.251 1949,900.5C 1948.58,899.244 1947.75,898.577 1946.5,898.5C 1938.17,858.84 1927.5,819.84 1914.5,781.5C 1915.29,781.217 1915.96,780.717 1916.5,780C 1916.17,748.333 1915.83,716.667 1915.5,685C 1917.13,684.506 1918.8,684.34 1920.5,684.5 Z"></path></g><g><path style="opacity:0.971" fill="#bf9250" d="M 587.5,684.5 C 587.929,693.048 587.929,701.715 587.5,710.5C 560.221,716.07 533.221,722.736 506.5,730.5C 506.404,723.279 506.071,716.112 505.5,709C 506.253,707.513 507.086,707.346 508,708.5C 508.483,707.552 508.649,706.552 508.5,705.5C 534.704,698.032 561.037,691.032 587.5,684.5 Z"></path></g><g><path style="opacity:0.979" fill="#bb8c4a" d="M 508.5,705.5 C 508.649,706.552 508.483,707.552 508,708.5C 507.086,707.346 506.253,707.513 505.5,709C 506.071,716.112 506.404,723.279 506.5,730.5C 488.78,735.908 471.447,742.408 454.5,750C 448.302,753.594 442.302,757.428 436.5,761.5C 435.448,761.649 434.448,761.483 433.5,761C 433.6,751.878 433.933,742.711 434.5,733.5C 458.407,722.416 483.074,713.083 508.5,705.5 Z"></path></g><g><path style="opacity:0.974" fill="#b88847" d="M 434.5,733.5 C 433.933,742.711 433.6,751.878 433.5,761C 434.448,761.483 435.448,761.649 436.5,761.5C 430.812,767.703 427.312,775.036 426,783.5C 418.753,792.917 411.753,792.584 405,782.5C 400.019,772.574 400.353,762.908 406,753.5C 414.246,744.968 423.746,738.301 434.5,733.5 Z"></path></g><g><path style="opacity:0.971" fill="#fbf2a3" d="M 1981.5,733.5 C 1998.9,777.695 2012.9,823.029 2023.5,869.5C 2022.71,869.783 2022.04,870.283 2021.5,871C 2021.83,902.667 2022.17,934.333 2022.5,966C 2021.96,966.717 2021.29,967.217 2020.5,967.5C 2017.63,944.505 2013.63,921.839 2008.5,899.5C 2017.51,948.448 2023.35,997.781 2026,1047.5C 2026.67,1056.17 2026.67,1064.83 2026,1073.5C 2024.18,1034.66 2020.52,995.99 2015,957.5C 2018.1,990.749 2020.43,1024.08 2022,1057.5C 2025.01,1124.6 2021.01,1191.27 2010,1257.5C 2013.1,1231.59 2015.77,1205.59 2018,1179.5C 2022.8,1112.25 2020.46,1045.25 2011,978.5C 2024.32,1100.75 2015.98,1221.75 1986,1341.5C 1981.83,1357.82 1977,1373.82 1971.5,1389.5C 1976.24,1372.28 1980.57,1354.94 1984.5,1337.5C 1984.17,1337.5 1983.83,1337.5 1983.5,1337.5C 1979.97,1338.05 1979.63,1336.88 1982.5,1334C 1981.17,1177.33 1981.17,1020.67 1982.5,864C 1981.83,863 1981.17,862 1980.5,861C 1981.38,860.292 1982.05,859.458 1982.5,858.5C 1987.55,877.744 1992.22,897.078 1996.5,916.5C 1991.39,885.38 1984.39,854.714 1975.5,824.5C 1977.79,826.006 1980.12,827.173 1982.5,828C 1982.5,820 1982.5,812 1982.5,804C 1980.28,800.911 1980.28,797.578 1982.5,794C 1982.68,792.34 1982.01,790.674 1980.5,789C 1981.17,788 1981.83,787 1982.5,786C 1981.17,770.667 1981.17,755.333 1982.5,740C 1980.71,737.833 1980.37,735.666 1981.5,733.5 Z M 2005.5,885.5 C 2007.25,889.889 2008.25,894.556 2008.5,899.5C 2006.75,895.111 2005.75,890.444 2005.5,885.5 Z M 1996.5,916.5 C 1997.9,919.909 1998.57,923.575 1998.5,927.5C 1997.1,924.091 1996.43,920.425 1996.5,916.5 Z M 1988.5,1321.5 C 1988.43,1324.43 1987.77,1327.09 1986.5,1329.5C 1986.29,1326.5 1986.96,1323.84 1988.5,1321.5 Z M 1986.5,1329.5 C 1986.71,1332.5 1986.04,1335.16 1984.5,1337.5C 1984.57,1334.57 1985.23,1331.91 1986.5,1329.5 Z"></path></g><g><path style="opacity:0.962" fill="#ba8a48" d="M 188.5,707.5 C 190.154,715.281 191.154,723.281 191.5,731.5C 192.506,732.396 192.506,733.062 191.5,733.5C 190.833,733.5 190.5,733.833 190.5,734.5C 190.5,734.833 190.5,735.167 190.5,735.5C 189.167,735.833 189.167,736.167 190.5,736.5C 190.96,743.243 190.96,750.41 190.5,758C 190.505,763.876 191.171,769.376 192.5,774.5C 166.343,846.442 148.51,920.442 139,996.5C 134.501,1039.82 130.335,1083.15 126.5,1126.5C 125.5,1126.5 124.5,1126.5 123.5,1126.5C 120.054,1097.57 119.554,1068.57 122,1039.5C 128.346,943.935 148.18,851.268 181.5,761.5C 180.015,760.828 178.849,761.494 178,763.5C 168.637,787.923 159.47,812.423 150.5,837C 150.15,838.257 149.483,838.591 148.5,838C 150.775,830.627 152.275,823.127 153,815.5C 120.454,911.107 103.788,1009.44 103,1110.5C 102.514,1137.18 102.514,1163.84 103,1190.5C 93.5278,1022.66 122.028,861.66 188.5,707.5 Z"></path></g><g><path style="opacity:0.99" fill="#faf0a2" d="M 1949.5,754.5 C 1962.95,788.28 1973.95,822.946 1982.5,858.5C 1982.05,859.458 1981.38,860.292 1980.5,861C 1981.17,862 1981.83,863 1982.5,864C 1981.17,1020.67 1981.17,1177.33 1982.5,1334C 1979.63,1336.88 1979.97,1338.05 1983.5,1337.5C 1975.83,1369.22 1966.16,1400.22 1954.5,1430.5C 1953.4,1377.62 1953.4,1324.78 1954.5,1272C 1953.42,1270.14 1952.09,1268.64 1950.5,1267.5C 1950.57,1267.06 1950.4,1266.73 1950,1266.5C 1949.67,1267.83 1949.33,1269.17 1949,1270.5C 1948.35,1271.7 1947.85,1271.7 1947.5,1270.5C 1964.79,1177.72 1968.29,1084.38 1958,990.5C 1955.78,973.828 1953.62,957.162 1951.5,940.5C 1953.41,947.949 1954.91,955.616 1956,963.5C 1959.27,992.889 1962.94,1022.22 1967,1051.5C 1967.24,1049.24 1967.74,1047.07 1968.5,1045C 1964.38,1015.25 1960.55,985.419 1957,955.5C 1954.2,936.328 1950.7,917.328 1946.5,898.5C 1947.75,898.577 1948.58,899.244 1949,900.5C 1949.86,898.251 1949.36,896.418 1947.5,895C 1948.17,894.667 1948.83,894.333 1949.5,894C 1946.83,893.333 1946.83,892.667 1949.5,892C 1946.83,891.333 1946.83,890.667 1949.5,890C 1946.83,889.333 1946.83,888.667 1949.5,888C 1946.83,887.333 1946.83,886.667 1949.5,886C 1946.83,885.333 1946.83,884.667 1949.5,884C 1946.83,883.333 1946.83,882.667 1949.5,882C 1946.83,881.333 1946.83,880.667 1949.5,880C 1946.83,879.333 1946.83,878.667 1949.5,878C 1946.83,877.333 1946.83,876.667 1949.5,876C 1946.83,875.333 1946.83,874.667 1949.5,874C 1946.83,873.333 1946.83,872.667 1949.5,872C 1946.83,871.333 1946.83,870.667 1949.5,870C 1946.83,869.333 1946.83,868.667 1949.5,868C 1946.83,867.333 1946.83,866.667 1949.5,866C 1946.83,865.333 1946.83,864.667 1949.5,864C 1946.83,863.333 1946.83,862.667 1949.5,862C 1946.83,861.333 1946.83,860.667 1949.5,860C 1946.83,859.333 1946.83,858.667 1949.5,858C 1946.83,857.333 1946.83,856.667 1949.5,856C 1946.83,855.333 1946.83,854.667 1949.5,854C 1946.83,853.333 1946.83,852.667 1949.5,852C 1946.83,851.333 1946.83,850.667 1949.5,850C 1946.83,849.333 1946.83,848.667 1949.5,848C 1946.83,847.333 1946.83,846.667 1949.5,846C 1946.83,845.333 1946.83,844.667 1949.5,844C 1946.83,843.333 1946.83,842.667 1949.5,842C 1946.83,841.333 1946.83,840.667 1949.5,840C 1946.83,839.333 1946.83,838.667 1949.5,838C 1946.83,837.333 1946.83,836.667 1949.5,836C 1946.83,835.333 1946.83,834.667 1949.5,834C 1946.83,833.333 1946.83,832.667 1949.5,832C 1946.83,831.333 1946.83,830.667 1949.5,830C 1946.83,829.333 1946.83,828.667 1949.5,828C 1946.83,827.333 1946.83,826.667 1949.5,826C 1946.83,825.333 1946.83,824.667 1949.5,824C 1946.83,823.333 1946.83,822.667 1949.5,822C 1946.83,821.333 1946.83,820.667 1949.5,820C 1946.83,819.333 1946.83,818.667 1949.5,818C 1946.83,817.333 1946.83,816.667 1949.5,816C 1946.83,815.333 1946.83,814.667 1949.5,814C 1946.83,813.333 1946.83,812.667 1949.5,812C 1946.83,811.333 1946.83,810.667 1949.5,810C 1946.83,809.333 1946.83,808.667 1949.5,808C 1946.83,807.333 1946.83,806.667 1949.5,806C 1946.83,805.333 1946.83,804.667 1949.5,804C 1946.83,803.333 1946.83,802.667 1949.5,802C 1946.83,801.333 1946.83,800.667 1949.5,800C 1946.83,799.333 1946.83,798.667 1949.5,798C 1946.83,797.333 1946.83,796.667 1949.5,796C 1946.83,795.333 1946.83,794.667 1949.5,794C 1946.83,793.333 1946.83,792.667 1949.5,792C 1946.83,791.333 1946.83,790.667 1949.5,790C 1946.83,789.333 1946.83,788.667 1949.5,788C 1946.83,787.333 1946.83,786.667 1949.5,786C 1946.83,785.333 1946.83,784.667 1949.5,784C 1946.83,783.333 1946.83,782.667 1949.5,782C 1946.83,781.333 1946.83,780.667 1949.5,780C 1946.83,779.333 1946.83,778.667 1949.5,778C 1946.83,777.333 1946.83,776.667 1949.5,776C 1946.83,775.333 1946.83,774.667 1949.5,774C 1946.83,773.333 1946.83,772.667 1949.5,772C 1946.83,771.333 1946.83,770.667 1949.5,770C 1946.83,769.333 1946.83,768.667 1949.5,768C 1946.83,767.333 1946.83,766.667 1949.5,766C 1946.83,765.333 1946.83,764.667 1949.5,764C 1947.12,763.026 1947.46,762.359 1950.5,762C 1946.5,761.333 1946.5,760.667 1950.5,760C 1946.5,759.333 1946.5,758.667 1950.5,758C 1949.66,756.989 1949.33,755.822 1949.5,754.5 Z M 1961.5,1178.5 C 1962.22,1188.04 1961.72,1197.71 1960,1207.5C 1960.17,1197.83 1960.67,1188.17 1961.5,1178.5 Z"></path></g><g><path style="opacity:0.94" fill="#ba8a48" d="M 189.5,795.5 C 190.736,802.548 190.736,809.715 189.5,817C 190.044,817.717 190.711,818.217 191.5,818.5C 177.342,866.455 166.175,915.121 158,964.5C 154.529,987.406 151.862,1010.41 150,1033.5C 147.244,1076.46 145.244,1119.46 144,1162.5C 134.677,1037.24 149.844,914.912 189.5,795.5 Z"></path></g><g><path style="opacity:0.983" fill="#d1af69" d="M 912.5,779.5 C 913.774,780.189 913.774,781.023 912.5,782C 913.167,782.667 913.833,783.333 914.5,784C 914.167,835.667 913.833,887.333 913.5,939C 914.044,939.717 914.711,940.217 915.5,940.5C 905.965,1017.46 895.299,1094.13 883.5,1170.5C 882.711,1170.22 882.044,1169.72 881.5,1169C 882.833,1099 882.833,1029 881.5,959C 884.07,957.651 884.07,956.484 881.5,955.5C 890.558,896.479 900.891,837.812 912.5,779.5 Z"></path></g><g><path style="opacity:0.966" fill="#fcf4a5" d="M 2023.5,869.5 C 2054.3,1005.98 2058.8,1143.31 2037,1281.5C 2033.97,1300.8 2030.14,1319.8 2025.5,1338.5C 2024.88,1338.61 2024.38,1338.94 2024,1339.5C 2022.96,1338.29 2021.79,1337.29 2020.5,1336.5C 2026.33,1315.52 2030.16,1294.18 2032,1272.5C 2029.73,1286 2026.9,1299.33 2023.5,1312.5C 2022.82,1300.76 2022.16,1288.93 2021.5,1277C 2021.83,1252.67 2022.17,1228.33 2022.5,1204C 2021.96,1203.28 2021.29,1202.78 2020.5,1202.5C 2024.8,1160.3 2026.97,1117.96 2027,1075.5C 2027.33,1082.83 2027.67,1090.17 2028,1097.5C 2028.74,1053.98 2026.24,1010.64 2020.5,967.5C 2021.29,967.217 2021.96,966.717 2022.5,966C 2022.17,934.333 2021.83,902.667 2021.5,871C 2022.04,870.283 2022.71,869.783 2023.5,869.5 Z"></path></g><g><path style="opacity:0.136" fill="#fff8a6" d="M 1951.5,940.5 C 1949.05,931.744 1947.55,922.744 1947,913.5C 1949.08,922.412 1950.58,931.412 1951.5,940.5 Z"></path></g><g><path style="opacity:0.984" fill="#cfac66" d="M 881.5,955.5 C 884.07,956.484 884.07,957.651 881.5,959C 882.833,1029 882.833,1099 881.5,1169C 882.044,1169.72 882.711,1170.22 883.5,1170.5C 871.098,1258.32 857.764,1345.98 843.5,1433.5C 842.761,1433.63 842.094,1433.46 841.5,1433C 841.833,1360.67 842.167,1288.33 842.5,1216C 841.906,1215.54 841.239,1215.37 840.5,1215.5C 853.95,1128.8 867.617,1042.13 881.5,955.5 Z"></path></g><g><path style="opacity:0.962" fill="#fbf1a3" d="M 2020.5,1202.5 C 2021.29,1202.78 2021.96,1203.28 2022.5,1204C 2022.17,1228.33 2021.83,1252.67 2021.5,1277C 2022.16,1288.93 2022.82,1300.76 2023.5,1312.5C 2017.24,1342.46 2009.24,1371.96 1999.5,1401C 1999.94,1402.76 2000.44,1402.6 2001,1400.5C 2008.21,1379.36 2014.71,1358.03 2020.5,1336.5C 2021.79,1337.29 2022.96,1338.29 2024,1339.5C 2024.38,1338.94 2024.88,1338.61 2025.5,1338.5C 2010.57,1410.96 1986.9,1480.3 1954.5,1546.5C 1953.34,1537.41 1953.34,1528.25 1954.5,1519C 1954.05,1517.71 1953.38,1516.55 1952.5,1515.5C 1953.04,1514.25 1953.71,1513.09 1954.5,1512C 1954.5,1504 1954.5,1496 1954.5,1488C 1953.18,1487.81 1951.85,1487.97 1950.5,1488.5C 1965.21,1454.02 1977.55,1418.69 1987.5,1382.5C 1972.49,1428.53 1955.49,1473.87 1936.5,1518.5C 1930.35,1529.14 1925.01,1540.14 1920.5,1551.5C 1919.66,1551.84 1919.33,1552.51 1919.5,1553.5C 1918.33,1554.51 1917.66,1555.85 1917.5,1557.5C 1916.5,1557.83 1915.83,1558.5 1915.5,1559.5C 1914.39,1559.44 1913.39,1559.11 1912.5,1558.5C 1970.48,1446.62 2006.48,1327.95 2020.5,1202.5 Z M 1989.5,1375.5 C 1989.59,1378.15 1988.92,1380.49 1987.5,1382.5C 1987.41,1379.85 1988.08,1377.51 1989.5,1375.5 Z M 1987.5,1382.5 C 1977.55,1418.69 1965.21,1454.02 1950.5,1488.5C 1946.35,1498.81 1941.68,1508.81 1936.5,1518.5C 1955.49,1473.87 1972.49,1428.53 1987.5,1382.5 Z"></path></g><g><path style="opacity:0.259" fill="#b98643" d="M 110.5,1190.5 C 113.918,1216.84 117.752,1243.17 122,1269.5C 116.078,1243.55 112.245,1217.22 110.5,1190.5 Z"></path></g><g><path style="opacity:0.991" fill="#cda964" d="M 840.5,1215.5 C 841.239,1215.37 841.906,1215.54 842.5,1216C 842.167,1288.33 841.833,1360.67 841.5,1433C 842.094,1433.46 842.761,1433.63 843.5,1433.5C 834.5,1490.17 825.5,1546.84 816.5,1603.5C 814.834,1535.01 813.834,1466.34 813.5,1397.5C 822.5,1336.83 831.5,1276.17 840.5,1215.5 Z"></path></g><g><path style="opacity:0.992" fill="#f8eea0" d="M 1950.5,1267.5 C 1952.09,1268.64 1953.42,1270.14 1954.5,1272C 1953.4,1324.78 1953.4,1377.62 1954.5,1430.5C 1943.55,1460.73 1931.22,1490.4 1917.5,1519.5C 1916.76,1519.63 1916.09,1519.46 1915.5,1519C 1915.83,1482 1916.17,1445 1916.5,1408C 1915.96,1407.28 1915.29,1406.78 1914.5,1406.5C 1930.18,1361.13 1942.18,1314.8 1950.5,1267.5 Z"></path></g><g><path style="opacity:0.024" fill="#fff9b0" d="M 1971.5,1389.5 C 1971.63,1390.24 1971.46,1390.91 1971,1391.5C 1970.31,1390.56 1970.47,1389.9 1971.5,1389.5 Z"></path></g><g><path style="opacity:0.016" fill="#feffbe" d="M 1966.5,1404.5 C 1967.83,1405.17 1967.83,1405.17 1966.5,1404.5 Z"></path></g><g><path style="opacity:0.981" fill="#f7ec9e" d="M 1914.5,1406.5 C 1915.29,1406.78 1915.96,1407.28 1916.5,1408C 1916.17,1445 1915.83,1482 1915.5,1519C 1916.09,1519.46 1916.76,1519.63 1917.5,1519.5C 1935.67,1484.99 1951.17,1448.66 1964,1410.5C 1964.65,1409.3 1965.15,1409.3 1965.5,1410.5C 1939.8,1488.22 1904.8,1561.22 1860.5,1629.5C 1860.4,1628.45 1860.4,1627.28 1860.5,1626C 1859.5,1625.67 1858.5,1625.33 1857.5,1625C 1858.49,1623.67 1859.49,1622.34 1860.5,1621C 1859.99,1592.76 1859.66,1564.59 1859.5,1536.5C 1873.47,1508.88 1886.64,1480.88 1899,1452.5C 1903.68,1436.96 1908.85,1421.63 1914.5,1406.5 Z M 1910.5,1534.5 C 1910.34,1536.15 1909.67,1537.49 1908.5,1538.5C 1908.23,1536.62 1908.9,1535.29 1910.5,1534.5 Z M 1908.5,1538.5 C 1908.25,1540.67 1907.25,1542.34 1905.5,1543.5C 1905.75,1541.33 1906.75,1539.66 1908.5,1538.5 Z"></path></g><g><path style="opacity:0.977" fill="#cca762" d="M 813.5,1397.5 C 813.834,1466.34 814.834,1535.01 816.5,1603.5C 811.915,1631.09 807.749,1658.76 804,1686.5C 800.638,1704.27 793.972,1720.6 784,1735.5C 781.248,1739.72 777.582,1741.06 773,1739.5C 771.205,1735.02 770.372,1730.36 770.5,1725.5C 782.211,1615.81 796.545,1506.47 813.5,1397.5 Z"></path></g><g><path style="opacity:0.969" fill="#f8ed9f" d="M 1954.5,1546.5 C 1928.45,1602.32 1897.11,1654.65 1860.5,1703.5C 1860.17,1696.83 1859.83,1690.17 1859.5,1683.5C 1882.41,1651.37 1903.08,1617.7 1921.5,1582.5C 1921.15,1581.3 1920.65,1581.3 1920,1582.5C 1902.05,1615.43 1881.89,1646.76 1859.5,1676.5C 1859.16,1670.15 1859.49,1663.98 1860.5,1658C 1859.91,1657.54 1859.24,1657.37 1858.5,1657.5C 1880.59,1625.71 1900.25,1592.38 1917.5,1557.5C 1919.1,1556.71 1919.77,1555.38 1919.5,1553.5C 1920.34,1553.16 1920.67,1552.49 1920.5,1551.5C 1926.97,1541.12 1932.3,1530.12 1936.5,1518.5C 1941.68,1508.81 1946.35,1498.81 1950.5,1488.5C 1951.85,1487.97 1953.18,1487.81 1954.5,1488C 1954.5,1496 1954.5,1504 1954.5,1512C 1953.71,1513.09 1953.04,1514.25 1952.5,1515.5C 1953.38,1516.55 1954.05,1517.71 1954.5,1519C 1953.34,1528.25 1953.34,1537.41 1954.5,1546.5 Z M 1925.5,1574.5 C 1925.57,1576.03 1924.91,1577.03 1923.5,1577.5C 1923.43,1575.97 1924.09,1574.97 1925.5,1574.5 Z"></path></g><g><path style="opacity:0.165" fill="#fdf5a4" d="M 1834.5,1572.5 C 1855.08,1536.67 1873.58,1499.67 1890,1461.5C 1890.32,1463.55 1889.99,1465.55 1889,1467.5C 1873.4,1504.04 1855.23,1539.04 1834.5,1572.5 Z"></path></g><g><path style="opacity:0.981" fill="#f5e99b" d="M 1859.5,1536.5 C 1859.66,1564.59 1859.99,1592.76 1860.5,1621C 1859.49,1622.34 1858.49,1623.67 1857.5,1625C 1858.5,1625.33 1859.5,1625.67 1860.5,1626C 1860.4,1627.28 1860.4,1628.45 1860.5,1629.5C 1846.88,1652.4 1831.55,1674.07 1814.5,1694.5C 1814.17,1667.83 1813.83,1641.17 1813.5,1614.5C 1829.34,1588.82 1844.67,1562.82 1859.5,1536.5 Z"></path></g><g><path style="opacity:0.871" fill="#bf914d" d="M 268.5,1639.5 C 268.19,1640.74 267.69,1640.74 267,1639.5C 266.71,1641.11 265.877,1642.44 264.5,1643.5C 231.788,1593.92 204.121,1541.42 181.5,1486C 182.332,1485.31 182.998,1485.48 183.5,1486.5C 195.549,1512.93 208.383,1538.93 222,1564.5C 238.023,1589.22 253.523,1614.22 268.5,1639.5 Z"></path></g><g><path style="opacity:0.831" fill="#f8ec9d" d="M 1912.5,1558.5 C 1913.39,1559.11 1914.39,1559.44 1915.5,1559.5C 1890.37,1608.81 1860.03,1654.48 1824.5,1696.5C 1840.47,1674.57 1855.97,1652.24 1871,1629.5C 1885.36,1606.1 1899.2,1582.43 1912.5,1558.5 Z"></path></g><g><path style="opacity:0.2" fill="#fdf5a0" d="M 1834.5,1572.5 C 1834.25,1574.67 1833.25,1576.34 1831.5,1577.5C 1831.75,1575.33 1832.75,1573.66 1834.5,1572.5 Z"></path></g><g><path style="opacity:0.086" fill="#fdf4a3" d="M 1831.5,1577.5 C 1826.16,1588.18 1819.83,1598.18 1812.5,1607.5C 1818.34,1597.15 1824.67,1587.15 1831.5,1577.5 Z"></path></g><g><path style="opacity:0.196" fill="#fcf1a1" d="M 1812.5,1607.5 C 1812.57,1609.03 1811.91,1610.03 1810.5,1610.5C 1810.43,1608.97 1811.09,1607.97 1812.5,1607.5 Z"></path></g><g><path style="opacity:0.071" fill="#fcf1a1" d="M 1810.5,1610.5 C 1810.57,1612.03 1809.91,1613.03 1808.5,1613.5C 1808.43,1611.97 1809.09,1610.97 1810.5,1610.5 Z"></path></g><g><path style="opacity:0.18" fill="#fdf3a4" d="M 1808.5,1613.5 C 1806.24,1618.36 1803.24,1622.7 1799.5,1626.5C 1801.76,1621.64 1804.76,1617.3 1808.5,1613.5 Z"></path></g><g><path style="opacity:0.987" fill="#f3e598" d="M 1813.5,1614.5 C 1813.83,1641.17 1814.17,1667.83 1814.5,1694.5C 1776.79,1744.55 1734.13,1790.21 1686.5,1831.5C 1685.37,1830.88 1684.37,1830.04 1683.5,1829C 1683.5,1822.33 1683.5,1815.67 1683.5,1809C 1684.5,1808 1685.5,1807 1686.5,1806C 1685.91,1805.54 1685.24,1805.37 1684.5,1805.5C 1728.23,1766.8 1765.23,1722.63 1795.5,1673C 1794.83,1672.33 1794.17,1672.33 1793.5,1673C 1762.96,1707 1729.62,1738.34 1693.5,1767C 1692.12,1768.24 1690.79,1768.41 1689.5,1767.5C 1714.26,1741.24 1738.1,1714.24 1761,1686.5C 1779.14,1662.88 1796.64,1638.88 1813.5,1614.5 Z"></path></g><g><path style="opacity:0.078" fill="#fef39d" d="M 1799.5,1626.5 C 1798.83,1627.17 1798.83,1627.17 1799.5,1626.5 Z"></path></g><g><path style="opacity:0.047" fill="#feff9c" d="M 1797.5,1628.5 C 1798.83,1629.17 1798.83,1629.17 1797.5,1628.5 Z"></path></g><g><path style="opacity:0.063" fill="#fff5a8" d="M 1797.5,1629.5 C 1797.26,1631.4 1796.26,1632.74 1794.5,1633.5C 1794.74,1631.6 1795.74,1630.26 1797.5,1629.5 Z"></path></g><g><path style="opacity:0.047" fill="#fffaa5" d="M 1794.5,1633.5 C 1794.57,1635.03 1793.91,1636.03 1792.5,1636.5C 1792.43,1634.97 1793.09,1633.97 1794.5,1633.5 Z"></path></g><g><path style="opacity:0.027" fill="#fffea1" d="M 1792.5,1636.5 C 1792.26,1638.4 1791.26,1639.74 1789.5,1640.5C 1789.74,1638.6 1790.74,1637.26 1792.5,1636.5 Z"></path></g><g><path style="opacity:0.02" fill="#fffea5" d="M 1789.5,1640.5 C 1789.48,1642.03 1788.82,1642.53 1787.5,1642C 1788.04,1641.28 1788.71,1640.78 1789.5,1640.5 Z"></path></g><g><path style="opacity:0.008" fill="#feff7f" d="M 1786.5,1643.5 C 1787.83,1644.17 1787.83,1644.17 1786.5,1643.5 Z"></path></g><g><path style="opacity:0.039" fill="#fffe9e" d="M 1784.5,1647.5 C 1784.37,1646.76 1784.54,1646.09 1785,1645.5C 1785.69,1646.44 1785.53,1647.1 1784.5,1647.5 Z"></path></g><g><path style="opacity:0.071" fill="#fef29d" d="M 1784.5,1647.5 C 1784.26,1649.4 1783.26,1650.74 1781.5,1651.5C 1781.74,1649.6 1782.74,1648.26 1784.5,1647.5 Z"></path></g><g><path style="opacity:0.094" fill="#fbf39c" d="M 1781.5,1651.5 C 1779.89,1655.05 1777.56,1658.05 1774.5,1660.5C 1776.11,1656.95 1778.44,1653.95 1781.5,1651.5 Z"></path></g><g><path style="opacity:0.894" fill="#c39754" d="M 268.5,1639.5 C 293.214,1676.23 319.881,1711.56 348.5,1745.5C 348.003,1747.6 347.67,1749.43 347.5,1751C 348.833,1752.67 350.167,1754.33 351.5,1756C 351.272,1756.4 350.938,1756.57 350.5,1756.5C 318.69,1721.21 290.024,1683.54 264.5,1643.5C 265.877,1642.44 266.71,1641.11 267,1639.5C 267.69,1640.74 268.19,1640.74 268.5,1639.5 Z"></path></g><g><path style="opacity:0.031" fill="#fdfaa2" d="M 1824.5,1696.5 C 1824.48,1698.03 1823.82,1698.53 1822.5,1698C 1823.04,1697.28 1823.71,1696.78 1824.5,1696.5 Z"></path></g><g><path style="opacity:0.97" fill="#f4e79a" d="M 1858.5,1657.5 C 1859.24,1657.37 1859.91,1657.54 1860.5,1658C 1859.49,1663.98 1859.16,1670.15 1859.5,1676.5C 1849,1692.82 1837.5,1708.48 1825,1723.5C 1810.38,1741.62 1794.88,1758.96 1778.5,1775.5C 1777.58,1771.14 1777.24,1766.47 1777.5,1761.5C 1806.77,1728.57 1833.77,1693.9 1858.5,1657.5 Z"></path></g><g><path style="opacity:0.97" fill="#f4e79a" d="M 1859.5,1683.5 C 1859.83,1690.17 1860.17,1696.83 1860.5,1703.5C 1838.78,1732.9 1815.61,1761.24 1791,1788.5C 1786.96,1792.7 1782.8,1796.7 1778.5,1800.5C 1778.07,1794.62 1778.07,1788.62 1778.5,1782.5C 1807.42,1750.93 1834.42,1717.93 1859.5,1683.5 Z"></path></g><g><path style="opacity:0.87" fill="#f4e697" d="M 1774.5,1660.5 C 1768.58,1668.94 1762.41,1677.27 1756,1685.5C 1726.25,1721.42 1694.75,1755.92 1661.5,1789C 1641.34,1804.24 1621.01,1819.24 1600.5,1834C 1599.24,1834.98 1597.91,1835.32 1596.5,1835C 1663.33,1784.34 1722.66,1726.17 1774.5,1660.5 Z"></path></g><g><path style="opacity:0.961" fill="#f2e396" d="M 1778.5,1782.5 C 1778.07,1788.62 1778.07,1794.62 1778.5,1800.5C 1749.29,1831.72 1717.96,1860.39 1684.5,1886.5C 1684.26,1882.28 1684.26,1878.12 1684.5,1874C 1683.96,1873.28 1683.29,1872.78 1682.5,1872.5C 1716.53,1844.79 1748.53,1814.79 1778.5,1782.5 Z"></path></g><g><path style="opacity:0.972" fill="#eedd91" d="M 1684.5,1805.5 C 1685.24,1805.37 1685.91,1805.54 1686.5,1806C 1685.5,1807 1684.5,1808 1683.5,1809C 1683.5,1815.67 1683.5,1822.33 1683.5,1829C 1684.37,1830.04 1685.37,1830.88 1686.5,1831.5C 1652.69,1861.41 1616.69,1888.41 1578.5,1912.5C 1578.51,1905.32 1578.17,1898.32 1577.5,1891.5C 1614.88,1865.14 1650.54,1836.47 1684.5,1805.5 Z"></path></g><g><path style="opacity:0.896" fill="#c89f5b" d="M 348.5,1745.5 C 377.436,1778.44 408.103,1809.77 440.5,1839.5C 439.851,1840.61 439.517,1841.61 439.5,1842.5C 438.264,1841.75 436.93,1841.42 435.5,1841.5C 405.419,1814.75 377.085,1786.42 350.5,1756.5C 350.938,1756.57 351.272,1756.4 351.5,1756C 350.167,1754.33 348.833,1752.67 347.5,1751C 347.67,1749.43 348.003,1747.6 348.5,1745.5 Z"></path></g><g><path style="opacity:0.947" fill="#f1e295" d="M 1777.5,1761.5 C 1777.24,1766.47 1777.58,1771.14 1778.5,1775.5C 1750,1807.68 1719,1837.01 1685.5,1863.5C 1685.05,1862.54 1684.38,1861.71 1683.5,1861C 1683.83,1858.67 1684.17,1856.33 1684.5,1854C 1683.96,1853.28 1683.29,1852.78 1682.5,1852.5C 1715.71,1823.96 1747.38,1793.63 1777.5,1761.5 Z"></path></g><g><path style="opacity:0.869" fill="#cca660" d="M 440.5,1839.5 C 472.043,1866.72 504.71,1892.39 538.5,1916.5C 537.5,1916.83 536.833,1917.5 536.5,1918.5C 500.838,1895.51 467.171,1869.84 435.5,1841.5C 436.93,1841.42 438.264,1841.75 439.5,1842.5C 439.517,1841.61 439.851,1840.61 440.5,1839.5 Z"></path></g><g><path style="opacity:0.016" fill="#cb9932" d="M 601.5,1868.5 C 600.833,1867.17 600.833,1867.17 601.5,1868.5 Z"></path></g><g><path style="opacity:0.008" fill="#e88620" d="M 601.5,1868.5 C 603.027,1868.43 604.027,1869.09 604.5,1870.5C 602.973,1870.57 601.973,1869.91 601.5,1868.5 Z"></path></g><g><path style="opacity:0.039" fill="#cb994c" d="M 604.5,1870.5 C 605.167,1870.5 605.5,1870.83 605.5,1871.5C 605.167,1871.17 604.833,1870.83 604.5,1870.5 Z"></path></g><g><path style="opacity:0.949" fill="#eedd91" d="M 1682.5,1872.5 C 1683.29,1872.78 1683.96,1873.28 1684.5,1874C 1684.26,1878.12 1684.26,1882.28 1684.5,1886.5C 1651.47,1913.86 1616.47,1938.53 1579.5,1960.5C 1578.71,1960.22 1578.04,1959.72 1577.5,1959C 1577.83,1955.33 1578.17,1951.67 1578.5,1948C 1577.91,1947.54 1577.24,1947.37 1576.5,1947.5C 1613.48,1924.86 1648.81,1899.86 1682.5,1872.5 Z"></path></g><g><path style="opacity:0.946" fill="#ead78b" d="M 1577.5,1891.5 C 1578.17,1898.32 1578.51,1905.32 1578.5,1912.5C 1521.08,1949.29 1460.25,1979.63 1396,2003.5C 1395.31,2002.67 1395.48,2002 1396.5,2001.5C 1419.92,1991.19 1442.92,1980.03 1465.5,1968C 1464.5,1967.33 1463.5,1967.33 1462.5,1968C 1453.5,1973 1444.17,1977.17 1434.5,1980.5C 1459.48,1968.84 1484.15,1956.34 1508.5,1943C 1513.01,1940.25 1517.34,1937.25 1521.5,1934C 1521,1933.83 1520.5,1933.67 1520,1933.5C 1506.68,1940.24 1493.18,1946.58 1479.5,1952.5C 1478.71,1951.64 1479.04,1950.81 1480.5,1950C 1513.89,1931.99 1546.22,1912.49 1577.5,1891.5 Z"></path></g><g><path style="opacity:0.741" fill="#bd8c49" d="M 589.5,1911.5 C 588.207,1911.87 586.874,1912.21 585.5,1912.5C 544.758,1887.55 507.425,1858.89 473.5,1826.5C 510.065,1857.77 548.732,1886.11 589.5,1911.5 Z"></path></g><g><path style="opacity:0.648" fill="#c29551" d="M 605.5,1871.5 C 636.894,1889.53 668.894,1906.53 701.5,1922.5C 696.687,1921.51 692.02,1920.01 687.5,1918C 658.972,1904.24 631.639,1888.74 605.5,1871.5 Z"></path></g><g><path style="opacity:0.063" fill="#c2873b" d="M 586.5,1920.5 C 585.833,1919.17 585.833,1919.17 586.5,1920.5 Z"></path></g><g><path style="opacity:0.944" fill="#eddc90" d="M 1682.5,1852.5 C 1683.29,1852.78 1683.96,1853.28 1684.5,1854C 1684.17,1856.33 1683.83,1858.67 1683.5,1861C 1684.38,1861.71 1685.05,1862.54 1685.5,1863.5C 1677.61,1871.12 1669.28,1878.29 1660.5,1885C 1633.98,1904.42 1607.31,1923.59 1580.5,1942.5C 1579.71,1941.21 1578.71,1940.04 1577.5,1939C 1577.83,1936.67 1578.17,1934.33 1578.5,1932C 1577.96,1931.28 1577.29,1930.78 1576.5,1930.5C 1613.22,1906.47 1648.55,1880.47 1682.5,1852.5 Z"></path></g><g><path style="opacity:0.055" fill="#ba8843" d="M 586.5,1920.5 C 587.833,1921.17 587.833,1921.17 586.5,1920.5 Z"></path></g><g><path style="opacity:0.024" fill="#d48029" d="M 591.5,1923.5 C 590.833,1922.17 590.833,1922.17 591.5,1923.5 Z"></path></g><g><path style="opacity:0.039" fill="#cb994c" d="M 701.5,1922.5 C 702.833,1923.17 702.833,1923.17 701.5,1922.5 Z"></path></g><g><path style="opacity:0.039" fill="#b88b45" d="M 591.5,1923.5 C 592.167,1923.5 592.5,1923.83 592.5,1924.5C 592.167,1924.17 591.833,1923.83 591.5,1923.5 Z"></path></g><g><path style="opacity:0.039" fill="#cd803c" d="M 592.5,1924.5 C 593.492,1924.33 594.158,1924.66 594.5,1925.5C 593.508,1925.67 592.842,1925.34 592.5,1924.5 Z"></path></g><g><path style="opacity:0.047" fill="#be8842" d="M 594.5,1925.5 C 596.674,1925.75 598.341,1926.75 599.5,1928.5C 597.326,1928.25 595.659,1927.25 594.5,1925.5 Z"></path></g><g><path style="opacity:0.094" fill="#ba8e44" d="M 599.5,1928.5 C 601.027,1928.43 602.027,1929.09 602.5,1930.5C 600.973,1930.57 599.973,1929.91 599.5,1928.5 Z"></path></g><g><path style="opacity:0.047" fill="#bf8c3f" d="M 602.5,1930.5 C 603.492,1930.33 604.158,1930.66 604.5,1931.5C 603.508,1931.67 602.842,1931.34 602.5,1930.5 Z"></path></g><g><path style="opacity:0.964" fill="#ead78c" d="M 1576.5,1930.5 C 1577.29,1930.78 1577.96,1931.28 1578.5,1932C 1578.17,1934.33 1577.83,1936.67 1577.5,1939C 1578.71,1940.04 1579.71,1941.21 1580.5,1942.5C 1573.2,1947.82 1565.53,1952.66 1557.5,1957C 1563.99,1954.42 1570.33,1951.25 1576.5,1947.5C 1577.24,1947.37 1577.91,1947.54 1578.5,1948C 1578.17,1951.67 1577.83,1955.33 1577.5,1959C 1578.04,1959.72 1578.71,1960.22 1579.5,1960.5C 1546.52,1980.83 1512.19,1998.83 1476.5,2014.5C 1475.93,2009.29 1475.6,2004.13 1475.5,1999C 1479,1996.99 1479,1995.66 1475.5,1995C 1475.83,1992.67 1476.17,1990.33 1476.5,1988C 1475.96,1987.28 1475.29,1986.78 1474.5,1986.5C 1509.36,1969.4 1543.36,1950.73 1576.5,1930.5 Z M 1548.5,1962.5 C 1548.03,1963.91 1547.03,1964.57 1545.5,1964.5C 1545.97,1963.09 1546.97,1962.43 1548.5,1962.5 Z"></path></g><g><path style="opacity:0.082" fill="#be8b44" d="M 604.5,1931.5 C 608.173,1933 611.506,1935 614.5,1937.5C 610.495,1936.5 607.161,1934.5 604.5,1931.5 Z"></path></g><g><path style="opacity:0.716" fill="#d3b169" d="M 538.5,1916.5 C 585.766,1948.64 635.432,1976.98 687.5,2001.5C 686.833,2001.5 686.167,2001.5 685.5,2001.5C 633.042,1978.27 583.376,1950.6 536.5,1918.5C 536.833,1917.5 537.5,1916.83 538.5,1916.5 Z"></path></g><g><path style="opacity:0.623" fill="#e5cd82" d="M 1396.5,1945.5 C 1399.6,1945.41 1399.93,1945.91 1397.5,1947C 1398.5,1947.33 1399.5,1947.67 1400.5,1948C 1370.74,1959.14 1340.41,1968.47 1309.5,1976C 1307.83,1976.67 1306.17,1976.67 1304.5,1976C 1336.05,1968.1 1366.71,1957.93 1396.5,1945.5 Z"></path></g><g><path style="opacity:0.361" fill="#be8d4a" d="M 614.5,1937.5 C 642.924,1952.71 671.591,1967.38 700.5,1981.5C 699.833,1981.5 699.5,1981.83 699.5,1982.5C 670.055,1969.28 641.722,1954.28 614.5,1937.5 Z"></path></g><g><path style="opacity:0.813" fill="#c49854" d="M 589.5,1911.5 C 662.778,1956.93 740.778,1991.93 823.5,2016.5C 821.517,2016.16 820.183,2016.82 819.5,2018.5C 735.911,1995.03 657.911,1959.7 585.5,1912.5C 586.874,1912.21 588.207,1911.87 589.5,1911.5 Z"></path></g><g><path style="opacity:0.173" fill="#e9d386" d="M 1434.5,1980.5 C 1432.57,1982.29 1430.24,1983.29 1427.5,1983.5C 1429.43,1981.71 1431.76,1980.71 1434.5,1980.5 Z"></path></g><g><path style="opacity:0.188" fill="#ead487" d="M 1427.5,1983.5 C 1424.63,1985.79 1421.3,1987.13 1417.5,1987.5C 1420.53,1985.6 1423.86,1984.26 1427.5,1983.5 Z"></path></g><g><path style="opacity:0.157" fill="#ecd286" d="M 1417.5,1987.5 C 1414.63,1989.79 1411.3,1991.13 1407.5,1991.5C 1410.53,1989.6 1413.86,1988.26 1417.5,1987.5 Z"></path></g><g><path style="opacity:0.047" fill="#e9d385" d="M 1405.5,1992.5 C 1405.84,1991.66 1406.51,1991.33 1407.5,1991.5C 1407.16,1992.34 1406.49,1992.67 1405.5,1992.5 Z"></path></g><g><path style="opacity:0.008" fill="#ffeea4" d="M 1405.5,1992.5 C 1405.1,1993.53 1404.44,1993.69 1403.5,1993C 1404.09,1992.54 1404.76,1992.37 1405.5,1992.5 Z"></path></g><g><path style="opacity:0.4" fill="#c59852" d="M 699.5,1982.5 C 699.5,1981.83 699.833,1981.5 700.5,1981.5C 754.325,2004.79 809.658,2023.45 866.5,2037.5C 808.879,2024.96 753.212,2006.63 699.5,1982.5 Z"></path></g><g><path style="opacity:0.008" fill="#fffe8e" d="M 1418.5,2001.5 C 1418.9,2000.47 1419.56,2000.31 1420.5,2001C 1419.91,2001.46 1419.24,2001.63 1418.5,2001.5 Z"></path></g><g><path style="opacity:0.016" fill="#fffeaa" d="M 1415.5,2002.5 C 1415.9,2001.47 1416.56,2001.31 1417.5,2002C 1416.91,2002.46 1416.24,2002.63 1415.5,2002.5 Z"></path></g><g><path style="opacity:0.962" fill="#e6d186" d="M 1474.5,1986.5 C 1475.29,1986.78 1475.96,1987.28 1476.5,1988C 1476.17,1990.33 1475.83,1992.67 1475.5,1995C 1479,1995.66 1479,1996.99 1475.5,1999C 1475.6,2004.13 1475.93,2009.29 1476.5,2014.5C 1442.11,2030.64 1406.78,2044.64 1370.5,2056.5C 1369.44,2055.12 1368.11,2054.29 1366.5,2054C 1367.83,2053.33 1369.17,2052.67 1370.5,2052C 1370.4,2048.21 1370.06,2044.37 1369.5,2040.5C 1369.5,2040.17 1369.5,2039.83 1369.5,2039.5C 1369.83,2039.5 1370.17,2039.5 1370.5,2039.5C 1373.17,2039.17 1373.17,2038.83 1370.5,2038.5C 1370.07,2035.29 1370.07,2031.95 1370.5,2028.5C 1405.65,2015.89 1440.32,2001.89 1474.5,1986.5 Z"></path></g><g><path style="opacity:0.086" fill="#dcba6d" d="M 1118.5,2005.5 C 1119.95,2004.39 1121.61,2004.22 1123.5,2005C 1121.87,2005.49 1120.2,2005.66 1118.5,2005.5 Z"></path></g><g><path style="opacity:0.682" fill="#d5b66f" d="M 1118.5,2005.5 C 1096.67,2009.2 1074.67,2009.37 1052.5,2006C 1074.5,2005.5 1096.5,2005.33 1118.5,2005.5 Z"></path></g><g><path style="opacity:0.055" fill="#fffea3" d="M 1415.5,2002.5 C 1412.63,2004.79 1409.3,2006.13 1405.5,2006.5C 1408.53,2004.6 1411.86,2003.26 1415.5,2002.5 Z"></path></g><g><path style="opacity:0.063" fill="#fffda6" d="M 1405.5,2006.5 C 1402.2,2008.6 1398.54,2009.93 1394.5,2010.5C 1397.8,2008.4 1401.46,2007.07 1405.5,2006.5 Z"></path></g><g><path style="opacity:0.668" fill="#cca761" d="M 823.5,2016.5 C 875.732,2030.91 928.732,2041.41 982.5,2048C 927.314,2043.13 872.981,2033.3 819.5,2018.5C 820.183,2016.82 821.517,2016.16 823.5,2016.5 Z"></path></g><g><path style="opacity:0.031" fill="#c5aa54" d="M 866.5,2037.5 C 867.833,2038.17 867.833,2038.17 866.5,2037.5 Z"></path></g><g><path style="opacity:0.951" fill="#e3cb81" d="M 1370.5,2028.5 C 1370.07,2031.95 1370.07,2035.29 1370.5,2038.5C 1370.5,2038.83 1370.5,2039.17 1370.5,2039.5C 1370.17,2039.5 1369.83,2039.5 1369.5,2039.5C 1366.83,2039.83 1366.83,2040.17 1369.5,2040.5C 1370.06,2044.37 1370.4,2048.21 1370.5,2052C 1369.17,2052.67 1367.83,2053.33 1366.5,2054C 1368.11,2054.29 1369.44,2055.12 1370.5,2056.5C 1331.07,2068.69 1291.07,2078.69 1250.5,2086.5C 1249.74,2085.73 1248.74,2085.23 1247.5,2085C 1248.83,2081.67 1248.83,2078.33 1247.5,2075C 1248.25,2073.51 1249.09,2073.35 1250,2074.5C 1250.46,2073.91 1250.63,2073.24 1250.5,2072.5C 1279.87,2066.24 1308.87,2058.57 1337.5,2049.5C 1333.28,2050.18 1329.11,2051.18 1325,2052.5C 1322.94,2051.86 1320.78,2052.03 1318.5,2053C 1318.83,2053.33 1319.17,2053.67 1319.5,2054C 1315.89,2055.15 1312.22,2055.98 1308.5,2056.5C 1308.17,2055.17 1307.83,2055.17 1307.5,2056.5C 1287.48,2060.51 1267.48,2064.51 1247.5,2068.5C 1248.17,2066.49 1248.17,2064.66 1247.5,2063C 1248.25,2061.51 1249.09,2061.35 1250,2062.5C 1250.46,2061.91 1250.63,2061.24 1250.5,2060.5C 1290.9,2051.73 1330.9,2041.07 1370.5,2028.5 Z M 1354.5,2044.5 C 1352.49,2045.92 1350.15,2046.59 1347.5,2046.5C 1349.51,2045.08 1351.85,2044.41 1354.5,2044.5 Z M 1344.5,2047.5 C 1342.49,2048.92 1340.15,2049.59 1337.5,2049.5C 1339.51,2048.08 1341.85,2047.41 1344.5,2047.5 Z"></path></g><g><path style="opacity:0.832" fill="#ddc177" d="M 685.5,2001.5 C 686.167,2001.5 686.833,2001.5 687.5,2001.5C 751.293,2029.54 817.293,2051.21 885.5,2066.5C 852.726,2062.73 820.393,2055.56 788.5,2045C 753.128,2032.72 718.795,2018.22 685.5,2001.5 Z"></path></g><g><path style="opacity:0.786" fill="#f6ea9b" d="M 1394.5,2010.5 C 1343.98,2029.8 1291.98,2044.13 1238.5,2053.5C 1240.03,2052.08 1239.7,2051.41 1237.5,2051.5C 1290.67,2041.46 1343,2027.79 1394.5,2010.5 Z"></path></g><g><path style="opacity:0.133" fill="#e0cb7f" d="M 1307.5,2056.5 C 1307.83,2056.5 1308.17,2056.5 1308.5,2056.5C 1308.31,2057.17 1307.98,2057.17 1307.5,2056.5 Z"></path></g><g><path style="opacity:0.825" fill="#efdf93" d="M 1237.5,2051.5 C 1239.7,2051.41 1240.03,2052.08 1238.5,2053.5C 1193.94,2062.03 1148.94,2067.03 1103.5,2068.5C 1104.41,2067.04 1104.41,2065.7 1103.5,2064.5C 1148.44,2062.93 1193.11,2058.6 1237.5,2051.5 Z"></path></g><g><path style="opacity:0.732" fill="#ead78b" d="M 1103.5,2064.5 C 1104.41,2065.7 1104.41,2067.04 1103.5,2068.5C 1069.42,2068.8 1035.42,2067.3 1001.5,2064C 1035.48,2064.42 1069.48,2064.59 1103.5,2064.5 Z"></path></g><g><path style="opacity:0.886" fill="#dec47b" d="M 1250.5,2060.5 C 1250.63,2061.24 1250.46,2061.91 1250,2062.5C 1249.09,2061.35 1248.25,2061.51 1247.5,2063C 1248.17,2064.66 1248.17,2066.49 1247.5,2068.5C 1211.37,2074.56 1175.04,2078.89 1138.5,2081.5C 1137.88,2079.25 1136.54,2077.58 1134.5,2076.5C 1173.23,2072.59 1211.89,2067.25 1250.5,2060.5 Z"></path></g><g><path style="opacity:0.89" fill="#d9bc74" d="M 1134.5,2076.5 C 1136.54,2077.58 1137.88,2079.25 1138.5,2081.5C 1053.04,2087.09 968.372,2081.26 884.5,2064C 927.882,2070.88 971.548,2075.55 1015.5,2078C 1055.18,2079.55 1094.84,2079.05 1134.5,2076.5 Z"></path></g><g><path style="opacity:0.942" fill="#dec37a" d="M 1250.5,2072.5 C 1250.63,2073.24 1250.46,2073.91 1250,2074.5C 1249.09,2073.35 1248.25,2073.51 1247.5,2075C 1248.83,2078.33 1248.83,2081.67 1247.5,2085C 1248.74,2085.23 1249.74,2085.73 1250.5,2086.5C 1193.05,2098.51 1135.05,2102.68 1076.5,2099C 1073.88,2098.85 1071.55,2098.02 1069.5,2096.5C 1072.3,2095.03 1075.3,2094.2 1078.5,2094C 1136.35,2090.82 1193.68,2083.65 1250.5,2072.5 Z"></path></g></svg>